<svg width="119" height="32" viewBox="0 0 119 32" fill="none" xmlns="http://www.w3.org/2000/svg">
<path fill-rule="evenodd" clip-rule="evenodd" d="M10.6249 0.517002C13.3892 -0.396028 16.7412 -0.200864 18.6795 2.44996C20.3674 4.75862 20.2981 7.31411 19.368 9.51723C18.4802 11.6202 16.7971 13.4907 14.9995 14.9672C12.1503 17.3074 8.56734 19.0263 4.87835 19.2263C5.33891 20.5233 6.15922 21.3291 7.21727 21.6741L7.36953 21.7209C8.94024 22.1758 10.4651 21.7345 11.947 20.6926C13.5048 19.5974 14.7747 17.9842 15.4953 16.7607L19.6296 18.2155L17.6558 31.977H13.1433L14.2064 24.5633C12.0311 26.003 9.17356 26.9545 5.99401 25.979L5.8351 25.9287C1.99751 24.6776 0.316316 21.1669 0.0430459 17.6675C-0.230041 14.1703 0.806901 10.221 2.85017 6.9663C4.90724 3.68965 7.77624 1.45795 10.6249 0.517002ZM15.0757 5.09368C14.7599 4.66187 13.8573 4.16075 12.0237 4.76639C10.2744 5.34421 8.20178 6.84648 6.63129 9.34807C5.56897 11.0402 4.88601 12.9477 4.60852 14.7579C7.10381 14.6284 9.79509 13.4554 12.167 11.5072C13.6637 10.2779 14.7547 8.95697 15.2539 7.77444C15.7109 6.69211 15.6417 5.86774 15.0757 5.09368Z" fill="#1F2A37"/>
<path fill-rule="evenodd" clip-rule="evenodd" d="M31.3998 7.82084C33.0809 7.82084 34.4577 8.16525 35.5297 8.85432C36.626 9.51878 37.4423 10.4294 37.9783 11.5861C38.5143 12.7427 38.7822 14.0471 38.7822 15.499C38.7822 16.1142 38.7456 16.7047 38.6725 17.2707C38.5994 17.8367 38.4898 18.4028 38.3437 18.9688H26.0275V19.3749C26.0275 19.4979 26.0397 19.621 26.0641 19.744C26.1616 20.753 26.5514 21.516 27.2336 22.0328C27.9158 22.525 28.7807 22.771 29.8284 22.771C30.7299 22.771 31.5949 22.6233 32.4232 22.328C33.276 22.0327 34.0922 21.6143 34.8718 21.073L37.028 24.1738C36.0047 24.9613 34.8718 25.5888 33.6293 26.0564C32.3867 26.524 31.0221 26.7578 29.5359 26.7578C27.6599 26.7578 26.1372 26.4009 24.9678 25.6873C23.7983 24.949 22.9455 23.9891 22.4095 22.8078C21.8735 21.602 21.6054 20.2978 21.6054 18.8951C21.6054 17.517 21.8125 16.1757 22.2267 14.8715C22.6652 13.5672 23.2987 12.3858 24.1271 11.3276C24.9555 10.2694 25.9788 9.4203 27.197 8.78046C28.4152 8.14062 29.8161 7.82085 31.3998 7.82084ZM31.3998 11.549C30.474 11.549 29.6699 11.7582 28.9878 12.1766C28.3056 12.5703 27.7574 13.0748 27.3432 13.69C26.9291 14.3053 26.6366 14.9328 26.466 15.5727H34.6525C34.6768 15.3266 34.689 15.0558 34.689 14.7606C34.689 14.2192 34.5793 13.7024 34.36 13.2102C34.1407 12.7181 33.7875 12.3243 33.3002 12.029C32.8373 11.7091 32.2038 11.549 31.3998 11.549Z" fill="#1F2A37"/>
<path fill-rule="evenodd" clip-rule="evenodd" d="M76.4447 7.82084C78.1258 7.82085 79.5023 8.16527 80.5743 8.85432C81.6707 9.51878 82.4869 10.4294 83.0229 11.5861C83.5589 12.7427 83.827 14.0471 83.827 15.499C83.827 16.1142 83.7904 16.7047 83.7173 17.2707C83.6442 17.8367 83.5347 18.4028 83.3885 18.9688H71.0724V19.3749C71.0724 19.4979 71.0846 19.621 71.109 19.744C71.2064 20.753 71.5962 21.516 72.2784 22.0328C72.9606 22.5249 73.8255 22.771 74.873 22.771C75.7745 22.771 76.6395 22.6233 77.4679 22.328C78.3206 22.0327 79.1368 21.6144 79.9165 21.073L82.0728 24.1738C81.0495 24.9613 79.9165 25.5888 78.6739 26.0564C77.4313 26.524 76.067 26.7578 74.5808 26.7578C72.7047 26.7578 71.1819 26.401 70.0124 25.6873C68.8429 24.949 67.9903 23.9891 67.4543 22.8078C66.9183 21.602 66.6503 20.2978 66.6503 18.8951C66.6503 17.517 66.8574 16.1757 67.2715 14.8715C67.7101 13.5672 68.3436 12.3858 69.172 11.3276C70.0004 10.2694 71.0236 9.4203 72.2419 8.78046C73.4601 8.14063 74.861 7.82084 76.4447 7.82084ZM76.4447 11.549C75.5188 11.549 74.7148 11.7582 74.0326 12.1766C73.3504 12.5703 72.8023 13.0749 72.3881 13.69C71.9739 14.3053 71.6814 14.9328 71.5109 15.5727H79.6973C79.7217 15.3266 79.7339 15.0558 79.7339 14.7606C79.7339 14.2192 79.6241 13.7024 79.4049 13.2102C79.1856 12.7181 78.8323 12.3243 78.3451 12.029C77.8822 11.7091 77.2487 11.549 76.4447 11.549Z" fill="#1F2A37"/>
<path d="M90.0752 18.5258C90.0509 18.7965 90.0265 19.055 90.0021 19.301C89.9777 19.5471 89.9655 19.781 89.9655 20.0024C89.9655 20.8883 90.1605 21.5774 90.5503 22.0696C90.9645 22.5372 91.6589 22.771 92.6335 22.771C93.7543 22.771 94.6436 22.4635 95.3015 21.8482C95.9837 21.2084 96.5196 20.3346 96.9094 19.2272C97.2992 18.0952 97.5917 16.7908 97.7866 15.3142L98.7733 8.18996H103.342L100.783 26.3887H96.5075L96.6514 24.1628C96.0616 24.9399 95.3926 25.522 94.6436 25.9087C93.5716 26.4747 92.4263 26.7578 91.2081 26.7578C89.2103 26.7578 87.7242 26.2409 86.7496 25.2073C85.7994 24.1491 85.3243 22.7464 85.3243 20.9991C85.3243 20.7284 85.3365 20.4699 85.3608 20.2238C85.3852 19.9778 85.4096 19.7194 85.4339 19.4488L86.9688 8.18996H91.5372L90.0752 18.5258Z" fill="#1F2A37"/>
<path d="M112.531 7.82084C114.042 7.82084 115.358 8.12839 116.478 8.74363C117.599 9.35885 118.44 10.2078 119 11.2906L115.93 13.3209C115.565 12.6319 115.077 12.1398 114.468 11.8445C113.859 11.5492 113.177 11.4015 112.422 11.4015C111.666 11.4015 110.996 11.5614 110.412 11.8813C109.827 12.1766 109.534 12.6196 109.534 13.2102C109.534 13.6286 109.742 13.9608 110.156 14.2069C110.594 14.4284 111.301 14.6622 112.275 14.9083C113.274 15.1544 114.237 15.4744 115.163 15.8681C116.113 16.2372 116.905 16.7662 117.538 17.4553C118.172 18.1197 118.488 19.0672 118.488 20.2977C118.488 21.5774 118.147 22.7094 117.465 23.6938C116.807 24.6536 115.894 25.4043 114.724 25.9457C113.555 26.4871 112.178 26.7578 110.594 26.7578C109.23 26.7578 108.048 26.5486 107.049 26.1303C106.05 25.7119 105.222 25.2074 104.564 24.6168C103.931 24.0262 103.431 23.4601 103.066 22.9187L106.355 20.4454C106.793 21.2575 107.403 21.9097 108.182 22.4019C108.962 22.894 109.827 23.1401 110.777 23.1401C111.435 23.1401 111.995 23.054 112.458 22.8817C112.921 22.6848 113.287 22.4265 113.555 22.1066C113.823 21.7867 113.957 21.4175 113.957 20.9991C113.957 20.6054 113.823 20.2854 113.555 20.0393C113.311 19.7686 112.958 19.5472 112.495 19.3749C112.032 19.178 111.496 19.0057 110.887 18.8581C110.278 18.6858 109.644 18.4766 108.986 18.2305C108.353 17.9844 107.744 17.6769 107.159 17.3077C106.599 16.9386 106.136 16.471 105.77 15.9049C105.405 15.3143 105.222 14.576 105.222 13.69C105.222 12.558 105.527 11.549 106.136 10.6631C106.769 9.77715 107.634 9.08808 108.731 8.5959C109.827 8.07914 111.094 7.82085 112.531 7.82084Z" fill="#1F2A37"/>
<path d="M51.7916 7.82084C53.692 7.82086 55.1539 8.31293 56.1772 9.2973C57.2005 10.2571 57.7121 11.5983 57.7121 13.3209C57.7121 13.5424 57.6999 13.764 57.6755 13.9855C57.6755 14.1824 57.6511 14.4038 57.6024 14.6499L55.9944 26.3887H51.4261L52.8514 16.0895C52.9002 15.7942 52.9246 15.5357 52.9246 15.3142C52.9489 15.0928 52.9611 14.8713 52.9611 14.6499C52.9611 13.6655 52.754 12.9518 52.3398 12.5088C51.9256 12.0413 51.2677 11.8074 50.3663 11.8074C49.0019 11.8074 47.9054 12.2997 47.077 13.2841C46.2487 14.2685 45.6883 15.7696 45.396 17.7875L44.1899 26.3887H39.6216L42.1798 8.18996H46.4923L46.2848 10.5361C46.5403 10.175 46.8166 9.86043 47.1136 9.59255C47.7958 8.95271 48.539 8.49749 49.343 8.22679C50.1714 7.9561 50.9877 7.82084 51.7916 7.82084Z" fill="#1F2A37"/>
<path d="M63.2837 26.3887H58.7519L61.2736 8.18996H65.842L63.2837 26.3887Z" fill="#1F2A37"/>
<path d="M66.3902 5.38436H61.5659L62.2237 0.659321H67.048L66.3902 5.38436Z" fill="#1F2A37"/>
</svg>
